<svg id="Layer_1" data-name="Layer 1" xmlns="http://www.w3.org/2000/svg" viewBox="0 0 278.01 65.74"><defs><style>.cls-1{fill:#fff27b;stroke:#323232;stroke-miterlimit:10;stroke-width:0.5px;}</style></defs><path class="cls-1" d="M105.64,21C99.29,7.39,96.45,1.21,88.56,1.21A30.34,30.34,0,0,0,80.47,2.3l3,7.35h.16a26.92,26.92,0,0,1,7.57-1.1c5.67,0,7.47,4.69,10.3,12.43H26.23C19.87,7.39,17,1.21,9.14,1.21A30.27,30.27,0,0,0,1.06,2.3L4,9.65h.15a27.05,27.05,0,0,1,7.58-1.1c5.67,0,7.47,4.69,10.3,12.43H4l-.55.74,2.66,5.35H18.71A11.66,11.66,0,0,1,19,30c0,2.89-.59,4.65-1.45,5.78-1.21-.12-3-.16-4.84-.16A4,4,0,0,0,9.06,37.3a4.27,4.27,0,0,0-.66,2.19,10.28,10.28,0,0,0,1.48,4c3.72,6.88,10,13.17,17.93,19.11h.59l3-6.64C25.35,53.09,20.24,49.92,17,46.41c5-2.78,8.52-6.72,8.52-14.54a25.42,25.42,0,0,0-.43-4.8H63.91V31.8a23.75,23.75,0,0,0-9.77,3.51c-3.47-2.65-5.66-4.1-9.26-4.1-5.15,0-9.49,3.71-9.49,10.2,0,8.2,7.42,16.75,15.39,20.89l.51-.19L53.21,56c-7.58-2.5-11.53-5.67-11.53-10.75,0-4.49,3.28-8,7.11-8a6.33,6.33,0,0,1,2.77.62,15.86,15.86,0,0,0-2.89,6.72l5.2,3.55h.55c1.56-5.46,3.2-8,9.45-9.72l-.12,21.91L70,62.11l.55-.39-.16-34.65h29.89V32.5a40.18,40.18,0,0,0-9.85-1.45c-8.12,0-12,4.3-12,9.46,0,2.15.82,4.76,3.24,7.85,3.24,4.06,7,5.86,11.21,5.86a14.52,14.52,0,0,0,7.39-2l-.16,8.12,6.21,1.8.55-.39-.16-34.65h6.8l.55-.74L111.37,21Zm-5.33,20.27a4.56,4.56,0,0,1-2,3.87,12.22,12.22,0,0,1-7.77,2.73c-4,0-5.74-1.6-5.74-3.71,0-3.75,3.32-6.88,9.69-6.88a26.62,26.62,0,0,1,5.85.63Z"/><path class="cls-1" d="M277,26.33,274.34,21H212.66a15.66,15.66,0,0,0-4.88-.71,11.92,11.92,0,0,0-3.91.71H186.69C180.34,7.39,177.5,1.21,169.61,1.21a30.21,30.21,0,0,0-8.08,1.09l3,7.35h.16a27.05,27.05,0,0,1,7.58-1.1c5.67,0,7.46,4.69,10.3,12.43H134.34l-.55.74,2.66,5.35h8.71a27.77,27.77,0,0,1,.51,5.43,19.59,19.59,0,0,1-.59,5.16,30.9,30.9,0,0,0-3.28-.24,3.82,3.82,0,0,0-4,4.1c0,1.57.9,3.91,2.89,6.92,3.83,5.82,9.46,11.13,16,16.09h.59L160.2,58c-6-2.85-10.71-5.82-13.79-9A20.4,20.4,0,0,0,150.82,45,22.14,22.14,0,0,0,160,47.07c.89,0,1.76,0,2.62-.09a19,19,0,0,0,4.41,7,17.25,17.25,0,0,0,12.35,5.28,18,18,0,0,0,13.36-6.29l.11-.63-4.29-5.89c-4.3,4.57-8.75,6.48-12.85,6.48-4.46,0-6.88-2.62-6.88-5.86,0-5.19,4.3-7.89,13.67-7.89H187l.58-.82,0-11.25h12a10.1,10.1,0,0,0-.15,1.64c0,4.18,4.18,8,10,11.91a8,8,0,0,1-2.62,1.49,16.14,16.14,0,0,0-6.17-1.45c-3.4,0-5.16,1.64-5.16,3.32a6,6,0,0,0,1.37,3c1.91,2.62,3.48,3.63,4.53,3.63a19,19,0,0,0,5.08-1.09c4.8,7.07,9,11.06,12.85,13.13h.43l2.62-6.8c-4.81-2.54-8.67-5.31-10.82-8.24,6-3.71,9.84-8.17,9.84-12.86a11.44,11.44,0,0,0-2.85-7.69h8.48l-.16,33.2,6.29,1.84.55-.39-.16-34.65h29.77v8.71a85.5,85.5,0,0,0-11.53-.94c-10.27,0-10.86,5.2-10.86,6.21,0,1.64,1.1,3.68,3.28,6s4,3.44,5.36,3.44a3.4,3.4,0,0,0,3.39-4,35.66,35.66,0,0,0-.35-4.29,22.45,22.45,0,0,1,5.71-.59c1.83,0,3.2,0,5,.2l-.19,18.51,6.21,1.8.55-.39-.16-34.65h6.8Zm-95.93,5.31c0,1-.35,1.48-1.41,1.48h-3.94c-8.25,0-11.84,3.11-13.1,6.84a33,33,0,0,1-4.44.27,34.37,34.37,0,0,1-6.29-.62,32.75,32.75,0,0,0,.19-4,44.44,44.44,0,0,0-.82-8.52h29.81Zm31.52,5.86c-4-1-6.84-3.2-6.84-6.06s2.19-5.19,5.67-5.19a4.14,4.14,0,0,1,4.45,4.45C215.86,33.36,214.53,35.51,212.58,37.5Z"/></svg>